<svg viewBox="0 0 566.93 566.93" xmlns="http://www.w3.org/2000/svg"><circle cx="283.46" cy="283.46" fill="#fff" r="164.68"/><path d="m283.6 229.02c-4.54 0-8.85.97-12.76 2.69v11.09c3.6-2.57 8.01-4.09 12.76-4.09 12.15 0 22.03 9.88 22.03 22.03s-9.88 22.03-22.03 22.03-21.93-9.79-22.03-21.86v-22.96-63.09l-9.69 8.61v77.33c.04 17.46 14.25 31.65 31.72 31.65s31.72-14.23 31.72-31.72-14.23-31.72-31.72-31.72z" fill="#1d1d1b"/><path d="m293.83 260.74c0 5.65-4.58 10.23-10.23 10.23s-10.23-4.58-10.23-10.23 4.58-10.23 10.23-10.23 10.23 4.58 10.23 10.23z" fill="#ff3a52"/><path d="m246.37 278.28c-3.08 2.03-7.39 3.93-12.76 3.93-9.65 0-13.07-3.88-13.07-14.81v-28.48h20.46v-8.64h-20.46v-21.67l-10.3 9.16v12.51h-8.99v8.64h8.99v28.54c0 7.64 1.61 13.38 4.91 17.54 3.95 4.98 10.16 7.51 18.46 7.51 7.72 0 13.9-2.69 18.34-5.6-2.2-2.62-4.08-5.51-5.58-8.62z" fill="#1d1d1b"/><path d="m344.72 256.2-.24-.07c-8.08-2.28-15.72-4.44-15.72-9.51v-.23c0-4.68 4.81-7.95 11.7-7.95 5.75 0 12.21 1.92 18.17 5.41l.57.33 4.56-8.03-.56-.32c-6.64-3.85-15.05-6.15-22.49-6.15-8.23 0-14.91 2.83-18.77 7.47 0 0-.01.02-.02.02-.4.49-.77.99-1.11 1.52-.03.04-.05.08-.08.12-.15.25-.3.49-.44.75 0 .01-.02.03-.02.04-.14.26-.28.53-.41.8-.03.06-.06.12-.08.18-.05.11-.1.22-.15.33-.85 1.95-1.31 4.09-1.31 6.38v.23c0 5.47 2.74 9.09 6.59 11.65 4.37 2.91 10.18 4.44 15.03 5.72 8.45 2.19 15.45 4.44 15.45 9.81v.23c0 5.24-5.05 8.76-12.57 8.76-6.83 0-13.99-2.33-20.68-6.74l-.32-.21c-1.21 2.89-2.73 5.61-4.54 8.11l.2.13c7.13 4.67 16.41 7.46 24.84 7.46 13.99 0 23.39-7.41 23.39-18.43v-.23c0-10.85-10.37-14.65-20.99-17.6z" fill="#1d1d1b"/><g fill="#ff3a52"><path d="m241.92 315.12v32.64c0 2.53-1.74 4.58-3.89 4.58h-2.54c-2.15 0-3.9-2.05-3.9-4.58v-32.64h-5.34v32.64c0 5.88 4.15 10.67 9.24 10.67h2.54c5.09 0 9.24-4.79 9.24-10.67v-32.64s-5.35 0-5.35 0z"/><path d="m187.28 318.14c0-1.67-1.19-3.02-2.65-3.02h-16.49v43.14s16.49 0 16.49 0c1.46 0 2.65-1.35 2.65-3.01s-1.19-3.01-2.65-3.01h-11.2s-.05-12.55-.05-12.55h9.42c1.46 0 2.65-1.35 2.65-3.02s-1.19-3.01-2.65-3.01l-9.36.07-.05-12.56h11.25c1.46 0 2.65-1.35 2.65-3.01z"/><path d="m207.63 315.12h-11.78v43.14h11.78c5.09 0 9.24-4.78 9.24-10.66v-21.86c0-5.85-4.15-10.62-9.24-10.62zm3.9 32.47c0 2.56-1.75 4.64-3.9 4.64h-6.45v-31.08h6.45c2.15 0 3.9 2.06 3.9 4.58z"/><path d="m265.04 320.99h2.54c1.51 0 2.9 1.03 3.55 2.63.3.77.89 1.35 1.62 1.61.65.22 1.32.16 1.92-.18 1.3-.73 1.86-2.49 1.28-4.03-1.56-3.68-4.85-6.06-8.37-6.06h-2.54c-5.07 0-9.19 4.79-9.19 10.67v22.13c0 5.88 4.13 10.67 9.19 10.67h2.54c3.53 0 6.8-2.36 8.32-6.01.63-1.52.09-3.29-1.23-4.02-.6-.35-1.3-.41-1.93-.2-.73.25-1.33.83-1.66 1.62-.65 1.56-1.99 2.52-3.5 2.52h-2.54c-2.15 0-3.9-2.05-3.9-4.58v-22.13c0-2.56 1.75-4.64 3.9-4.64z"/><path d="m326.66 315.12h-15.64c-1.49 0-2.69 1.35-2.69 3.02s1.21 3.01 2.69 3.01h5.17s0 37.11 0 37.11h5.28l-.05-37.11h5.23c1.49 0 2.69-1.35 2.69-3.01s-1.21-3.02-2.69-3.02z"/><path d="m338.82 315.12c-1.46 0-2.65 1.35-2.65 3.02v37.11c0 1.66 1.21 3.01 2.69 3.01s2.65-1.35 2.65-3.01v-37.11c0-1.67-1.21-3.02-2.69-3.02z"/><path d="m361.53 314.96h-2.54c-5.09 0-9.24 4.79-9.24 10.67v22.13c0 5.88 4.15 10.67 9.24 10.67h2.54c5.09 0 9.24-4.79 9.24-10.67v-22.13c0-5.88-4.15-10.67-9.24-10.67zm3.9 32.8c0 2.53-1.75 4.58-3.9 4.58h-2.54c-2.15 0-3.9-2.05-3.9-4.58v-22.13c0-2.56 1.75-4.64 3.9-4.64h2.54c2.15 0 3.9 2.08 3.9 4.64z"/><path d="m399.54 315.11h-5.34v26.82s-10.61-25.14-10.61-25.14c-.55-1.26-1.78-1.92-3.04-1.61-1.18.31-2.04 1.55-2.04 2.95v40.12s5.34 0 5.34 0v-26.82l10.61 25.09c.45 1.09 1.39 1.75 2.43 1.75.2 0 .4-.03.61-.08h.02c1.21-.39 2.03-1.57 2.03-2.95v-40.13z"/><path d="m297.04 317.29c-.32-1.3-1.34-2.18-2.54-2.18s-2.22.87-2.54 2.17l-10.38 40.98h5.55l2.05-8.15 10.65.02 2.05 8.13h5.55zm-6.32 26.74 3.77-14.96 3.78 14.96h-7.56z"/></g></svg>